<svg id="Layer_1" data-name="Layer 1" xmlns="http://www.w3.org/2000/svg" xmlns:xlink="http://www.w3.org/1999/xlink" viewBox="0 0 1080 1745.71"><defs><style>.cls-1{fill:url(#linear-gradient);}.cls-2{fill:url(#linear-gradient-2);}.cls-3{opacity:0.48;}.cls-4{fill:url(#linear-gradient-3);}.cls-5{fill:url(#linear-gradient-4);}.cls-6{fill:url(#linear-gradient-5);}.cls-7{fill:url(#linear-gradient-6);}.cls-8{fill:url(#linear-gradient-7);}.cls-9{fill:url(#linear-gradient-8);}.cls-10{fill:url(#linear-gradient-9);}.cls-11{fill:url(#linear-gradient-10);}.cls-12{fill:url(#linear-gradient-11);}.cls-13{fill:url(#linear-gradient-12);}.cls-14{fill:url(#linear-gradient-13);}.cls-15{fill:url(#linear-gradient-14);}.cls-16{fill:url(#linear-gradient-15);}.cls-17{fill:url(#linear-gradient-16);}.cls-18{fill:url(#linear-gradient-17);}.cls-19{fill:url(#linear-gradient-18);}.cls-20{fill:url(#linear-gradient-19);}.cls-21{fill:url(#linear-gradient-20);}.cls-22{fill:url(#linear-gradient-21);}.cls-23{fill:url(#linear-gradient-22);}.cls-24{fill:url(#linear-gradient-23);}.cls-25{fill:url(#linear-gradient-24);}.cls-26{fill:url(#linear-gradient-25);}.cls-27{fill:url(#linear-gradient-26);}.cls-28{fill:url(#linear-gradient-38);}.cls-29{fill:url(#linear-gradient-48);}.cls-30{fill:url(#linear-gradient-50);}.cls-31{fill:url(#linear-gradient-51);}</style><linearGradient id="linear-gradient" x1="922.62" y1="314.75" x2="922.62" gradientUnits="userSpaceOnUse"><stop offset="0" stop-color="#32a8df" stop-opacity="0"/><stop offset="0.21" stop-color="#24aae4" stop-opacity="0.29"/><stop offset="0.42" stop-color="#17abe8" stop-opacity="0.54"/><stop offset="0.61" stop-color="#0daceb" stop-opacity="0.74"/><stop offset="0.77" stop-color="#06aded" stop-opacity="0.88"/><stop offset="0.91" stop-color="#02aeee" stop-opacity="0.97"/><stop offset="1" stop-color="#00aeef"/></linearGradient><linearGradient id="linear-gradient-2" x1="663.57" y1="706.58" x2="663.57" y2="349.94" gradientTransform="translate(1662.41 1736.56) rotate(167.72)" gradientUnits="userSpaceOnUse"><stop offset="0" stop-color="#fff" stop-opacity="0"/><stop offset="0.42" stop-color="#8ddbf8" stop-opacity="0.45"/><stop offset="0.82" stop-color="#28bbf2" stop-opacity="0.84"/><stop offset="1" stop-color="#00aeef"/></linearGradient><linearGradient id="linear-gradient-3" x1="338.63" y1="546.92" x2="460.8" y2="546.92" gradientUnits="userSpaceOnUse"><stop offset="0" stop-color="#fff" stop-opacity="0"/><stop offset="0.25" stop-color="#e0e1e2" stop-opacity="0.18"/><stop offset="0.55" stop-color="#c1c2c4" stop-opacity="0.35"/><stop offset="0.8" stop-color="#aeb0b2" stop-opacity="0.46"/><stop offset="0.99" stop-color="#a7a9ac" stop-opacity="0.5"/></linearGradient><linearGradient id="linear-gradient-4" x1="293.69" y1="565.65" x2="505.73" y2="565.65" xlink:href="#linear-gradient-3"/><linearGradient id="linear-gradient-5" x1="265.48" y1="584.77" x2="533.93" y2="584.77" xlink:href="#linear-gradient-3"/><linearGradient id="linear-gradient-6" x1="244.57" y1="603.91" x2="554.85" y2="603.91" xlink:href="#linear-gradient-3"/><linearGradient id="linear-gradient-7" x1="228.24" y1="623.04" x2="571.18" y2="623.04" xlink:href="#linear-gradient-3"/><linearGradient id="linear-gradient-8" x1="215.31" y1="642.17" x2="584.1" y2="642.17" xlink:href="#linear-gradient-3"/><linearGradient id="linear-gradient-9" x1="205.11" y1="661.3" x2="594.31" y2="661.3" xlink:href="#linear-gradient-3"/><linearGradient id="linear-gradient-10" x1="197.22" y1="680.43" x2="602.2" y2="680.43" xlink:href="#linear-gradient-3"/><linearGradient id="linear-gradient-11" x1="191.39" y1="699.56" x2="608.02" y2="699.56" xlink:href="#linear-gradient-3"/><linearGradient id="linear-gradient-12" x1="187.46" y1="718.7" x2="611.96" y2="718.7" xlink:href="#linear-gradient-3"/><linearGradient id="linear-gradient-13" x1="185.29" y1="737.83" x2="614.13" y2="737.83" xlink:href="#linear-gradient-3"/><linearGradient id="linear-gradient-14" x1="184.78" y1="756.96" x2="614.63" y2="756.96" xlink:href="#linear-gradient-3"/><linearGradient id="linear-gradient-15" x1="185.22" y1="776.09" x2="614.19" y2="776.09" xlink:href="#linear-gradient-3"/><linearGradient id="linear-gradient-16" x1="187.3" y1="795.22" x2="612.12" y2="795.22" xlink:href="#linear-gradient-3"/><linearGradient id="linear-gradient-17" x1="191.15" y1="814.35" x2="608.27" y2="814.35" xlink:href="#linear-gradient-3"/><linearGradient id="linear-gradient-18" x1="196.87" y1="833.48" x2="602.55" y2="833.48" xlink:href="#linear-gradient-3"/><linearGradient id="linear-gradient-19" x1="204.65" y1="852.61" x2="594.77" y2="852.61" xlink:href="#linear-gradient-3"/><linearGradient id="linear-gradient-20" x1="214.72" y1="871.74" x2="584.69" y2="871.74" xlink:href="#linear-gradient-3"/><linearGradient id="linear-gradient-21" x1="227.49" y1="890.87" x2="571.92" y2="890.87" xlink:href="#linear-gradient-3"/><linearGradient id="linear-gradient-22" x1="243.63" y1="910" x2="555.79" y2="910" xlink:href="#linear-gradient-3"/><linearGradient id="linear-gradient-23" x1="264.27" y1="929.14" x2="535.14" y2="929.14" xlink:href="#linear-gradient-3"/><linearGradient id="linear-gradient-24" x1="291.98" y1="948.27" x2="507.44" y2="948.27" xlink:href="#linear-gradient-3"/><linearGradient id="linear-gradient-25" x1="335.44" y1="967.4" x2="463.99" y2="967.4" xlink:href="#linear-gradient-3"/><linearGradient id="linear-gradient-26" x1="184.78" y1="757.45" x2="614.63" y2="757.45" xlink:href="#linear-gradient-3"/><linearGradient id="linear-gradient-38" x1="335.44" y1="967.48" x2="463.99" y2="967.48" xlink:href="#linear-gradient-3"/><linearGradient id="linear-gradient-48" x1="185.22" y1="789.41" x2="614.19" y2="789.41" xlink:href="#linear-gradient-3"/><linearGradient id="linear-gradient-50" x1="319.46" y1="439.79" x2="32.5" y2="643.63" gradientUnits="userSpaceOnUse"><stop offset="0" stop-color="#2d2a65" stop-opacity="0"/><stop offset="0.27" stop-color="#2a2764" stop-opacity="0.38"/><stop offset="0.57" stop-color="#282463" stop-opacity="0.72"/><stop offset="0.82" stop-color="#272362" stop-opacity="0.92"/><stop offset="0.99" stop-color="#262262"/></linearGradient><linearGradient id="linear-gradient-51" x1="814.27" y1="1770.75" x2="586.17" y2="1932.78" gradientTransform="translate(1901.65 215.87) rotate(66.12)" gradientUnits="userSpaceOnUse"><stop offset="0" stop-color="#fff" stop-opacity="0"/><stop offset="0.31" stop-color="#a2a0bb" stop-opacity="0.43"/><stop offset="0.58" stop-color="#5e5b8b" stop-opacity="0.74"/><stop offset="0.82" stop-color="#35316d" stop-opacity="0.93"/><stop offset="0.99" stop-color="#262262"/></linearGradient></defs><circle class="cls-1" cx="922.62" cy="157.38" r="157.38"/><circle class="cls-2" cx="901.64" cy="1361.56" r="178.32"/><g class="cls-3"><path class="cls-4" d="M460.8,551.33H338.63a216.17,216.17,0,0,1,122.17,0Z"/><path class="cls-5" d="M505.73,570.45h-212a209.29,209.29,0,0,1,19-9.6h174A209.29,209.29,0,0,1,505.73,570.45Z"/><path class="cls-6" d="M533.93,589.58H265.48q6.3-5,13-9.61H521Q527.64,584.53,533.93,589.58Z"/><path class="cls-7" d="M554.85,608.71H244.57q4.76-5,9.82-9.61H545Q550.1,603.74,554.85,608.71Z"/><path class="cls-8" d="M571.18,627.84H228.24q3.72-4.9,7.72-9.61h327.5Q567.45,622.92,571.18,627.84Z"/><path class="cls-9" d="M584.1,647H215.31c2-3.25,4-6.46,6.12-9.6H578C580.11,640.51,582.15,643.72,584.1,647Z"/><path class="cls-10" d="M594.31,666.11H205.11q2.28-4.87,4.81-9.61H589.49Q592,661.22,594.31,666.11Z"/><path class="cls-11" d="M602.2,685.24h-405q1.72-4.86,3.69-9.61h397.6Q600.46,680.37,602.2,685.24Z"/><path class="cls-12" d="M608,704.37H191.39q1.23-4.86,2.69-9.61H605.34Q606.79,699.51,608,704.37Z"/><path class="cls-13" d="M612,723.5H187.46c.5-3.23,1.09-6.44,1.74-9.61h421C610.87,717.06,611.45,720.27,612,723.5Z"/><path class="cls-14" d="M614.13,742.63H185.29c.22-3.22.5-6.43.87-9.61h427.1C613.62,736.2,613.91,739.41,614.13,742.63Z"/><path class="cls-15" d="M614.63,757.45c0,1.44,0,2.89,0,4.31H184.83c0-1.42-.05-2.87-.05-4.31,0-1.77,0-3.54.07-5.29H614.57C614.61,753.91,614.63,755.68,614.63,757.45Z"/><path class="cls-16" d="M614.19,771.29q-.32,4.85-.82,9.61H186.05q-.51-4.77-.83-9.61Z"/><path class="cls-17" d="M612.12,790.42q-.75,4.85-1.71,9.6H189q-1-4.75-1.7-9.6Z"/><path class="cls-18" d="M608.27,809.54q-1.2,4.86-2.63,9.61H193.77q-1.43-4.75-2.62-9.61Z"/><path class="cls-19" d="M602.55,828.67c-1.14,3.24-2.34,6.44-3.64,9.61H200.51q-1.95-4.75-3.64-9.61Z"/><path class="cls-20" d="M594.77,847.8q-2.26,4.88-4.75,9.61H209.4q-2.51-4.74-4.75-9.61Z"/><path class="cls-21" d="M584.69,866.94c-1.93,3.25-4,6.46-6,9.6H220.77c-2.09-3.14-4.11-6.35-6.05-9.6Z"/><path class="cls-22" d="M571.92,886.07q-3.67,4.9-7.64,9.61H235.13q-4-4.7-7.64-9.61Z"/><path class="cls-23" d="M555.79,905.2c-3.12,3.3-6.36,6.51-9.68,9.61H253.32q-5-4.65-9.69-9.61Z"/><path class="cls-24" d="M535.14,924.33q-6.18,5-12.75,9.61H277q-6.56-4.58-12.75-9.61Z"/><path class="cls-25" d="M507.44,943.46a209.36,209.36,0,0,1-18.6,9.61H310.57Q301,948.72,292,943.46Z"/><path class="cls-26" d="M464,962.59a213.83,213.83,0,0,1-55.74,9.61H391.18a213.75,213.75,0,0,1-55.74-9.61Z"/><path class="cls-27" d="M610.21,713.89h-421c-.65,3.17-1.24,6.38-1.74,9.61H612C611.45,720.27,610.87,717.06,610.21,713.89Zm4.36,38.27H184.85c0,1.75-.07,3.52-.07,5.29,0,1.44,0,2.89.05,4.31H614.58c0-1.42,0-2.87,0-4.31C614.63,755.68,614.61,753.91,614.57,752.16ZM185.22,771.29q.32,4.85.83,9.61H613.37q.51-4.77.82-9.61Zm2.08,19.13q.73,4.85,1.7,9.6H610.41q1-4.75,1.71-9.6Zm3.85,19.12q1.2,4.86,2.62,9.61H605.64q1.44-4.75,2.63-9.61Zm5.72,19.13q1.69,4.86,3.64,9.61h398.4c1.3-3.17,2.5-6.37,3.64-9.61Zm7.78,19.13q2.25,4.88,4.75,9.61H590q2.49-4.74,4.75-9.61Zm10.07,19.14c1.94,3.25,4,6.46,6.05,9.6H578.65c2.09-3.14,4.11-6.35,6-9.6Zm12.77,19.13q3.69,4.9,7.64,9.61H564.28q4-4.7,7.64-9.61Zm16.14,19.13q4.69,4.95,9.69,9.61H546.11c3.32-3.1,6.56-6.31,9.68-9.61Zm20.64,19.13q6.19,5,12.75,9.61H522.39q6.55-4.58,12.75-9.61ZM292,943.46q9,5.25,18.59,9.61H488.84a209.36,209.36,0,0,0,18.6-9.61Zm43.46,19.13a213.75,213.75,0,0,0,55.74,9.61c2.82.12,5.67.17,8.53.17s5.7,0,8.54-.17A213.83,213.83,0,0,0,464,962.59ZM613.26,733H186.16c-.37,3.18-.65,6.39-.87,9.61H614.13C613.91,739.41,613.62,736.2,613.26,733Zm-7.92-38.26H194.08q-1.46,4.75-2.69,9.61H608Q606.79,699.51,605.34,694.76Zm-6.83-19.13H200.91q-2,4.74-3.69,9.61h405Q600.46,680.38,598.51,675.63Zm-9-19.13H209.92q-2.52,4.72-4.81,9.61h389.2Q592,661.24,589.49,656.5ZM578,637.37H221.43c-2.12,3.14-4.16,6.35-6.12,9.6H584.1C582.15,643.72,580.11,640.51,578,637.37Zm-14.53-19.14H236q-4,4.69-7.72,9.61H571.18Q567.45,622.94,563.46,618.23ZM545,599.1H254.39q-5.05,4.65-9.82,9.61H554.85Q550.11,603.74,545,599.1ZM521,580H278.45q-6.66,4.56-13,9.61H533.93Q527.65,584.54,521,580Zm-34.27-19.12h-174a209.29,209.29,0,0,0-19,9.6h212A209.29,209.29,0,0,0,486.69,560.85Zm-87-18.33a214.55,214.55,0,0,0-61.08,8.81H460.8A214.57,214.57,0,0,0,399.71,542.52Z"/><path class="cls-4" d="M460.8,551.33H338.63a216.17,216.17,0,0,1,122.17,0Z"/><path class="cls-5" d="M505.73,570.45h-212a209.29,209.29,0,0,1,19-9.6h174A209.29,209.29,0,0,1,505.73,570.45Z"/><path class="cls-6" d="M533.93,589.58H265.48q6.3-5,13-9.61H521Q527.64,584.53,533.93,589.58Z"/><path class="cls-7" d="M554.85,608.71H244.57q4.76-5,9.82-9.61H545Q550.1,603.74,554.85,608.71Z"/><path class="cls-8" d="M571.18,627.84H228.24q3.72-4.9,7.72-9.61h327.5Q567.45,622.92,571.18,627.84Z"/><path class="cls-9" d="M584.1,647H215.31c2-3.25,4-6.46,6.12-9.6H578C580.11,640.51,582.15,643.72,584.1,647Z"/><path class="cls-10" d="M594.31,666.11H205.11q2.28-4.87,4.81-9.61H589.49Q592,661.22,594.31,666.11Z"/><path class="cls-11" d="M602.2,685.24h-405q1.72-4.86,3.69-9.61h397.6Q600.46,680.37,602.2,685.24Z"/><path class="cls-12" d="M608,704.37H191.39q1.23-4.86,2.69-9.61H605.34Q606.79,699.51,608,704.37Z"/><path class="cls-13" d="M612,723.5H187.46c.5-3.23,1.09-6.44,1.74-9.61h421C610.87,717.06,611.45,720.27,612,723.5Z"/><path class="cls-14" d="M614.13,742.63H185.29c.22-3.22.5-6.43.87-9.61h427.1C613.62,736.2,613.91,739.41,614.13,742.63Z"/><path class="cls-28" d="M464,962.59a213.83,213.83,0,0,1-55.74,9.61c-2.84.12-5.68.17-8.54.17s-5.71,0-8.53-.17a213.75,213.75,0,0,1-55.74-9.61Z"/><path class="cls-25" d="M507.44,943.46a209.36,209.36,0,0,1-18.6,9.61H310.57Q301,948.72,292,943.46Z"/><path class="cls-24" d="M535.14,924.33q-6.18,5-12.75,9.61H277q-6.56-4.58-12.75-9.61Z"/><path class="cls-23" d="M555.79,905.2c-3.12,3.3-6.36,6.51-9.68,9.61H253.32q-5-4.65-9.69-9.61Z"/><path class="cls-22" d="M571.92,886.07q-3.67,4.9-7.64,9.61H235.13q-4-4.7-7.64-9.61Z"/><path class="cls-21" d="M584.69,866.94c-1.93,3.25-4,6.46-6,9.6H220.77c-2.09-3.14-4.11-6.35-6.05-9.6Z"/><path class="cls-20" d="M594.77,847.8q-2.26,4.88-4.75,9.61H209.4q-2.51-4.74-4.75-9.61Z"/><path class="cls-19" d="M602.55,828.67c-1.14,3.24-2.34,6.44-3.64,9.61H200.51q-1.95-4.75-3.64-9.61Z"/><path class="cls-18" d="M608.27,809.54q-1.2,4.86-2.63,9.61H193.77q-1.43-4.75-2.62-9.61Z"/><path class="cls-17" d="M612.12,790.42q-.75,4.85-1.71,9.6H189q-1-4.75-1.7-9.6Z"/><path class="cls-29" d="M614.19,784.61q-.32,4.83-.82,9.61H186.05q-.51-4.79-.83-9.61Z"/><path class="cls-15" d="M614.63,757.45c0,1.44,0,2.89,0,4.31H184.83c0-1.42-.05-2.87-.05-4.31,0-1.77,0-3.54.07-5.29H614.57C614.61,753.91,614.63,755.68,614.63,757.45Z"/></g><circle class="cls-30" cx="175.98" cy="541.71" r="175.98"/><circle class="cls-31" cx="491.88" cy="1605.79" r="139.89"/></svg>