<svg xmlns="http://www.w3.org/2000/svg" viewBox="0 0 583.19 368.1"><defs><style>.cls-1{fill:#a97c50;}.cls-2{fill:#c49a6c;}.cls-3{fill:#f1f2f2;}.cls-4{fill:#fbb040;}.cls-5{fill:#f9ed32;}.cls-6{fill:#f7941d;}.cls-7{fill:none;}</style></defs><g id="Layer_2" data-name="Layer 2"><g id="Layer_1-2" data-name="Layer 1"><rect class="cls-1" x="221.97" y="22.69" width="25.01" height="344.99" rx="12.51" transform="translate(21.42 -23.18) rotate(5.93)"/><rect class="cls-2" x="238.21" y="22.69" width="25.01" height="344.99" rx="12.51"/><rect class="cls-1" x="459.07" y="22.69" width="25.01" height="344.99" rx="12.51" transform="translate(22.69 -47.68) rotate(5.93)"/><rect class="cls-2" x="475.31" y="22.69" width="25.01" height="344.99" rx="12.51"/><rect class="cls-3" x="170.26" y="191.33" width="372.95" height="109.05"/><polygon class="cls-4" points="185 300.38 170.26 300.38 170.26 277.27 185 300.38"/><polygon class="cls-4" points="304.62 300.38 241.46 300.38 171.89 191.33 235.04 191.33 304.62 300.38"/><polygon class="cls-4" points="424.24 300.38 361.08 300.38 291.5 191.33 354.66 191.33 424.24 300.38"/><polygon class="cls-4" points="543.21 299.37 543.21 300.38 480.69 300.38 411.12 191.33 474.27 191.33 543.21 299.37"/><polygon class="cls-4" points="543.21 191.33 543.21 210.88 530.73 191.33 543.21 191.33"/><path class="cls-4" d="M177.36,355.65H57.1c-5.11,0-8.63-6.17-6.8-11.91l2.05-6.4,6.58-20.57,17-53,12-37.5,12.44-38.88,7.93-24.8c3.16-9.88,14.78-9.88,17.94,0l7.94,24.8,12.44,38.88,12,37.5,17,53,6.58,20.57,2,6.4C186,349.48,182.48,355.65,177.36,355.65Z"/><polygon class="cls-5" points="146.58 226.27 87.89 226.27 100.33 187.39 134.14 187.39 146.58 226.27"/><polygon class="cls-5" points="175.54 316.77 58.93 316.77 75.89 263.77 158.58 263.77 175.54 316.77"/><path class="cls-6" d="M177.36,355.65H57.1c-5.11,0-8.63-6.17-6.8-11.91l2.05-6.4H182.12l2,6.4C186,349.48,182.48,355.65,177.36,355.65Z"/><rect class="cls-4" y="343.2" width="234.47" height="24.9" rx="12.45"/><rect class="cls-3" x="172.41" y="50.85" width="372.95" height="109.05"/><polygon class="cls-4" points="187.15 159.9 172.41 159.9 172.41 136.79 187.15 159.9"/><polygon class="cls-4" points="306.76 159.9 243.61 159.9 174.03 50.85 237.19 50.85 306.76 159.9"/><polygon class="cls-4" points="426.38 159.9 363.23 159.9 293.65 50.85 356.81 50.85 426.38 159.9"/><polygon class="cls-4" points="545.36 158.89 545.36 159.9 482.84 159.9 413.27 50.85 476.42 50.85 545.36 158.89"/><polygon class="cls-4" points="545.36 50.85 545.36 70.4 532.88 50.85 545.36 50.85"/><rect class="cls-7" x="150.38" width="432.81" height="126.55"/></g></g></svg>