<svg xmlns="http://www.w3.org/2000/svg" xmlns:xlink="http://www.w3.org/1999/xlink" viewBox="0 0 416.11 215.85"><defs><style>.cls-1{fill:url(#linear-gradient);}.cls-2{fill:url(#linear-gradient-2);}.cls-3{fill:#00aeef;}.cls-4{fill:url(#linear-gradient-3);}.cls-5{fill:#1c75bc;}.cls-6,.cls-7{font-size:16.34px;fill:#2b3990;font-family:AkagiPro-Bold, Akagi Pro;font-weight:700;}.cls-6{letter-spacing:0.5em;}.cls-7{letter-spacing:0.5em;}.cls-8{fill:url(#linear-gradient-4);}.cls-9{fill:url(#linear-gradient-5);}.cls-10{fill:url(#linear-gradient-6);}.cls-11{fill:url(#linear-gradient-7);}.cls-12{fill:url(#linear-gradient-8);}.cls-13{fill:url(#linear-gradient-9);}</style><linearGradient id="linear-gradient" x1="172.82" y1="117.07" x2="328.9" y2="117.07" gradientUnits="userSpaceOnUse"><stop offset="0.61" stop-color="#00aeef"/><stop offset="0.81" stop-color="#01aced"/><stop offset="0.88" stop-color="#04a5e7"/><stop offset="0.93" stop-color="#0a9add"/><stop offset="0.97" stop-color="#1289ce"/><stop offset="1" stop-color="#1c75bc"/></linearGradient><linearGradient id="linear-gradient-2" x1="119.02" y1="125.53" x2="171.36" y2="216.18" gradientUnits="userSpaceOnUse"><stop offset="0.84" stop-color="#00aeef"/><stop offset="1" stop-color="#1c75bc"/></linearGradient><linearGradient id="linear-gradient-3" x1="46.46" y1="116.99" x2="127.86" y2="116.99" xlink:href="#linear-gradient-2"/><linearGradient id="linear-gradient-4" x1="181.76" x2="181.76" y2="42.01" gradientUnits="userSpaceOnUse"><stop offset="0.63" stop-color="#00aeef"/><stop offset="0.72" stop-color="#04a6e7"/><stop offset="0.87" stop-color="#0f8fd3"/><stop offset="1" stop-color="#1c75bc"/></linearGradient><linearGradient id="linear-gradient-5" x1="275.53" y1="94.22" x2="275.53" y2="1.94" gradientUnits="userSpaceOnUse"><stop offset="0" stop-color="#00aeef"/><stop offset="1" stop-color="#1c75bc"/></linearGradient><linearGradient id="linear-gradient-6" x1="366.91" y1="1.94" x2="366.91" y2="94.22" gradientUnits="userSpaceOnUse"><stop offset="0" stop-color="#00aeef"/><stop offset="0.38" stop-color="#01aced"/><stop offset="0.59" stop-color="#05a3e5"/><stop offset="0.77" stop-color="#0c95d9"/><stop offset="0.93" stop-color="#1682c7"/><stop offset="1" stop-color="#1c75bc"/></linearGradient><linearGradient id="linear-gradient-7" x1="111.24" y1="1.94" x2="111.24" y2="94.22" xlink:href="#linear-gradient-4"/><linearGradient id="linear-gradient-8" x1="85.66" y1="27.84" x2="147.66" y2="135.21" xlink:href="#linear-gradient-2"/><linearGradient id="linear-gradient-9" x1="180.12" y1="191.52" x2="293.45" y2="191.52" xlink:href="#linear-gradient-2"/></defs><g id="Layer_2" data-name="Layer 2"><g id="Layer_1-2" data-name="Layer 1"><path class="cls-1" d="M178.32,118.11a117.75,117.75,0,0,1,17.47-7,176.12,176.12,0,0,1,18.31-4.7A178.9,178.9,0,0,1,271,104.32a170.76,170.76,0,0,1,18.87,3.53,144.07,144.07,0,0,1,35.65,14,5,5,0,0,1-4.26,9l-.06,0A268.91,268.91,0,0,0,287,119.63c-5.83-1.42-11.71-2.61-17.64-3.61s-11.91-1.7-17.93-2.23a255.66,255.66,0,0,0-36.42-.4c-6.1.37-12.23.88-18.34,1.69S184.43,116.82,178.32,118.11Z"/><path class="cls-2" d="M164.09,177.35a124,124,0,0,1,9.72,14.44,81.75,81.75,0,0,1,4,7.93c.31.71.6,1.44.86,2.23a15.15,15.15,0,0,1,.7,2.71,7.3,7.3,0,0,1,0,2.26,5.46,5.46,0,0,1-.56,1.76,6.25,6.25,0,0,1-.49.77,5.79,5.79,0,0,1-2.14,1.7,7.92,7.92,0,0,1-2.71.69,12.05,12.05,0,0,1-1.79,0,24.47,24.47,0,0,1-5.38-1,41.38,41.38,0,0,1-4.61-1.73,49.84,49.84,0,0,1-8.29-4.68,59.83,59.83,0,0,1-7.29-6,65.13,65.13,0,0,1-6.25-7,68.69,68.69,0,0,1-13.36-34.22,81.63,81.63,0,0,1,3.91-35.29l4.61.72c.2,5.69.35,11.25.85,16.7a124,124,0,0,0,2.37,16,77.73,77.73,0,0,0,12.06,28.42,58.4,58.4,0,0,0,4.78,6,57.22,57.22,0,0,0,5.48,5.31,49.79,49.79,0,0,0,6.09,4.44,32.15,32.15,0,0,0,3.19,1.73,17.26,17.26,0,0,0,2.86,1.11,2.26,2.26,0,0,1,.34.1c0,.05-.05,0-.62.28a3.82,3.82,0,0,0-1.29,1.08,3.14,3.14,0,0,0-.34.55,3.33,3.33,0,0,0-.24.56,2.25,2.25,0,0,0-.09.44c0,.37.05.25.07.13a6.7,6.7,0,0,0-.07-1.48c-.08-.6-.18-1.23-.29-1.88-.5-2.6-1.18-5.34-1.89-8.06C167,188.55,165.4,183,164.09,177.35Z"/><path class="cls-3" d="M54.61,82.18c-5,2.74-9.87,5-14.66,7.29S30.5,94,26,96.37c-1.13.61-2.28,1.17-3.38,1.82s-2.22,1.24-3.33,1.86c-2.2,1.27-4.34,2.63-6.49,4S8.56,107,6.46,108.59,2.39,112,.2,113.86l-.2-.1a26.63,26.63,0,0,1,2.86-8.16A38.24,38.24,0,0,1,8,98.54a47.24,47.24,0,0,1,6.47-5.78c1.17-.84,2.36-1.66,3.58-2.41s2.48-1.44,3.74-2.1a61.3,61.3,0,0,1,16-5.53,57.44,57.44,0,0,1,8.37-1A37.87,37.87,0,0,1,54.61,82.18Z"/><path class="cls-4" d="M51,131.53a58.37,58.37,0,0,1,7.3-8.78,82.47,82.47,0,0,1,8.57-7.47,68.86,68.86,0,0,1,20.63-10.92,42,42,0,0,1,12.7-2,26.38,26.38,0,0,1,7,1,21.74,21.74,0,0,1,6.78,3.33,19.66,19.66,0,0,1,5.07,5.48,20.27,20.27,0,0,1,2.55,6.4,24.28,24.28,0,0,1,.45,3.21A23.56,23.56,0,0,1,122,125a20.41,20.41,0,0,1-1.43,6c-2.63-3.27-4.73-6.26-7-8.47a16.83,16.83,0,0,0-6.51-4.3,21.75,21.75,0,0,0-7-1.07,41.19,41.19,0,0,0-8.82,1,152.56,152.56,0,0,0-19.42,6C65,126.57,58.32,129.27,51,131.62Z"/><path class="cls-5" d="M333.93,154.34s3.85-1.84,6.19-.83,4.19,2.67,3.68,4.85S338.78,159.53,333.93,154.34Z"/><text class="cls-6" transform="translate(207.4 145.55)">IRVINE</text><text class="cls-7" transform="translate(157.54 145.55)">UC</text><path class="cls-8" d="M186.08,9.86a36.61,36.61,0,0,1,17.52,4.38l3.29-9.72C202.78,2.19,195.94,0,186.49,0c-17.94,0-29.85,10.68-29.85,25.05a22,22,0,0,0,2.68,10.87,138.2,138.2,0,0,1,29,6.09L187,41.49c-12.73-4.94-18.35-9.18-18.35-17.8C168.69,17.39,173.49,9.86,186.08,9.86Z"/><path class="cls-9" d="M245.85,1.94h-11l-.05.66-6.38,91.62h11.36l2.46-39.56c.05-.7.09-1.41.13-2.11.77-13.27,1.39-27.77,1.65-38.7h.28c.94,4,2,8.08,3.24,12.31A172.6,172.6,0,0,1,245.85,1.94Zm71.06.73,0-.73h-11a175.06,175.06,0,0,1-1,18.5c.69-2.22,1.36-4.42,2-6.59h.41c-.14,11.51.68,27,1.36,39.84l0,.76L311,94.22h11.64Z"/><path class="cls-10" d="M352.87,84.23V51h35.87V41.1H352.87V11.94H390.8v-10H341V94.22h51.89v-10Z"/><path class="cls-3" d="M275,73.15c0,.17.09.33.13.5h.42c0-.16.08-.32.13-.47C275.42,73.18,275.2,73.17,275,73.15Zm0,0c0,.17.09.33.13.5h.42c0-.16.08-.32.13-.47C275.42,73.18,275.2,73.17,275,73.15ZM316.87,1.94h-11a157.19,157.19,0,0,1-1,17.52c-2.51,22.27-9.57,39.31-17.65,47.78-3.69,3.86-7.59,6-11.37,6h-.21c-.24,0-.46,0-.68,0-5-.43-10.18-4.44-14.75-11.32-5.59-8.44-10.29-21.2-12.68-36.95a155.08,155.08,0,0,1-1.7-22.94h-11l-.05.62c.09,17.27,2.75,33.69,7.57,47.31q1.51,4.27,3.31,8.15c5.79,12.51,13.33,20.77,21.79,24a22.89,22.89,0,0,0,8.39,1.59,22.47,22.47,0,0,0,5.3-.63c9.71-2.31,18.39-11,24.88-25q1.41-3,2.64-6.35c5.24-13.94,8.12-31,8.22-49ZM275,73.15c0,.17.09.33.13.5h.42c0-.16.08-.32.13-.47C275.42,73.18,275.2,73.17,275,73.15Zm0,0c0,.17.09.33.13.5h.42c0-.16.08-.32.13-.47C275.42,73.18,275.2,73.17,275,73.15Z"/><polygon class="cls-11" points="72.62 94.22 103.98 1.94 118.36 1.94 149.85 94.22 137.12 94.22 110.96 12.49 84.95 94.22 72.62 94.22"/><path class="cls-12" d="M168.65,112.53c2.11-1.85,4.33-3.55,6.41-5.39l3.17-2.68,3.06-2.78a121.11,121.11,0,0,0,11.29-11.52A54.94,54.94,0,0,0,197,84l.93-1.56.75-1.57.38-.78.27-.77c.17-.51.41-1,.53-1.52a10.67,10.67,0,0,0,.26-5.32,9.49,9.49,0,0,0-2.38-4.31,12.21,12.21,0,0,0-1-1l-1.15-1a32.42,32.42,0,0,0-2.77-1.83c-.94-.61-2.05-1.1-3.09-1.66-.54-.26-1.12-.49-1.67-.74s-1.11-.5-1.71-.71A93.61,93.61,0,0,0,171.48,57c-5.18-1-10.5-1.83-15.87-2.37s-10.79-.93-16.24-1.11-10.91-.24-16.38-.1-11,.33-16.43.75a313.22,313.22,0,0,0-32.72,4A234.7,234.7,0,0,0,41.79,66.1c-10.43,3.53-20.64,8-29.81,14.56A72.23,72.23,0,0,1,24.77,69.43a112.87,112.87,0,0,1,14.77-8.74,178,178,0,0,1,32.1-12.1c5.52-1.55,11.09-2.85,16.7-4s11.27-2,17-2.82a255.66,255.66,0,0,1,34.37-2.22c5.76.06,11.54.31,17.34.81a151.41,151.41,0,0,1,17.4,2.54,93.49,93.49,0,0,1,17.33,5.32c.71.28,1.43.63,2.14,1s1.43.67,2.13,1a45.77,45.77,0,0,1,4.21,2.51,42.43,42.43,0,0,1,4.06,3.07l1.93,1.86a26.26,26.26,0,0,1,1.8,2.09,22.19,22.19,0,0,1,4.63,10.72,22.55,22.55,0,0,1-1.49,11.22c-.31.84-.71,1.59-1.07,2.37l-.57,1.16-.64,1.06c-.44.71-.87,1.41-1.32,2.1l-1.43,1.91c-.94,1.31-2,2.39-3,3.57s-2.16,2.14-3.23,3.21a96.54,96.54,0,0,1-14,10.57,142.16,142.16,0,0,1-15.07,8.21Z"/><path class="cls-3" d="M59.21,100.91c-3.16,2.18-6.11,4-9,5.79s-5.59,3.57-8.21,5.42-5.11,3.77-7.68,5.79-4.92,4.35-8.06,6.8a18.74,18.74,0,0,1,.17-2.9c.06-.48.14-1,.22-1.45s.26-.91.4-1.37c.3-.92.63-1.83,1-2.74s.91-1.69,1.41-2.52a26.55,26.55,0,0,1,8.08-8.16A32.86,32.86,0,0,1,48,101.08a30.9,30.9,0,0,1,5.58-.73A19.42,19.42,0,0,1,59.21,100.91Z"/><path class="cls-13" d="M293.45,215.05l-.44,0a8.91,8.91,0,0,1-1.29-.23,19.21,19.21,0,0,1-3.26-1.17c-.89-.4-1.71-.81-2.49-1.22-1.57-.83-3-1.67-4.47-2.51-2.88-1.68-5.64-3.39-8.39-5.1l-8.2-5.06c-5.46-3.34-10.89-6.63-16.42-9.66a175.23,175.23,0,0,0-16.83-8.33,90.62,90.62,0,0,0-17.47-5.67,42.16,42.16,0,0,0-17.89-.1,34.78,34.78,0,0,0-16.18,9.14,31.27,31.27,0,0,1,14.58-13.7c6.39-2.94,13.62-3.74,20.49-3.29a80.1,80.1,0,0,1,20,4.17,149.1,149.1,0,0,1,18.5,7.82q8.88,4.53,17.25,9.72c2.81,1.7,5.55,3.45,8.28,5.22l5.62,3.61C287.06,203.66,288.26,214.21,293.45,215.05Z"/><path class="cls-3" d="M411.91,194c-1.31-.77-2.57-1.63-3.81-2.5-2.46-1.76-4.82-3.7-7.15-5.65-4.65-3.93-9.12-8.06-13.57-12.23s-8.84-8.42-13.22-12.69-8.63-8.67-12.91-13.06l-12.81-13.21-.8-.81a1.75,1.75,0,0,1-.16-.2,9.51,9.51,0,0,1-.73-1.29c-.51-1.07-1.06-2.38-1.57-3.74-1.05-2.73-2-5.69-3.24-8.76a39.82,39.82,0,0,0-2.33-4.86,14,14,0,0,0-2.19-2.9,9.45,9.45,0,0,0-1-.83,6.06,6.06,0,0,0-.62-.41l-.35-.21-.24-.12a9.78,9.78,0,0,0-2.2-.79,8.87,8.87,0,0,0-2.7-.17,8.33,8.33,0,0,0-2.67.76,9.42,9.42,0,0,0-3.45,2.89,16.44,16.44,0,0,0-2.63,5.81,20.75,20.75,0,0,0,.18,10.71,17.69,17.69,0,0,0,2.19,4.83,10.8,10.8,0,0,0,3.83,3.65,37.31,37.31,0,0,1,.1-4.8c.13-1.48.32-2.89.53-4.26a51,51,0,0,1,1.77-7.65,9.15,9.15,0,0,1,.69-1.57,29.54,29.54,0,0,1,1.38,3.54c.9,2.73,1.77,5.68,2.8,8.76a42.44,42.44,0,0,0,1.89,4.84,21,21,0,0,0,1.55,2.74,10.68,10.68,0,0,0,1.29,1.61l.8.83q6.48,6.72,13.27,13.11t13.88,12.52c4.7,4.1,9.54,8.07,14.58,11.8A138.82,138.82,0,0,0,398.15,190a69.3,69.3,0,0,0,8.64,4,34.08,34.08,0,0,0,4.57,1.42,17.15,17.15,0,0,0,2.36.42c.39,0,.77.06,1.15.06a5.13,5.13,0,0,0,1.24-.14A13.27,13.27,0,0,1,411.91,194ZM331.6,119a.39.39,0,0,1-.11.06l0,0C331.7,118.83,331.81,118.85,331.6,119Z"/><path class="cls-3" d="M416.11,195.76a13,13,0,0,1-4.23,2.87,26.1,26.1,0,0,1-4.94,1.59,39.19,39.19,0,0,1-10.29.73,61.07,61.07,0,0,1-10.11-1.42,93.6,93.6,0,0,1-9.68-2.85,155.45,155.45,0,0,1-18.37-7.83c-3-1.49-5.9-3-8.78-4.64l-4.18-2.33c-1.38-.75-2.76-1.49-4.16-2.19a136.21,136.21,0,0,0-17.11-7.44,71.55,71.55,0,0,0-17.61-4,33.79,33.79,0,0,0-8.4.29,14.91,14.91,0,0,0-6.63,2.7,8.85,8.85,0,0,0-3.17,5.26,18.22,18.22,0,0,0,.24,7.52,42.37,42.37,0,0,0,2.8,8.13c.64,1.34,1.3,2.68,2,4,.35.66.75,1.31,1.12,2l1.26,2.19a36,36,0,0,1,2.48,5.15,14.42,14.42,0,0,1,.55,1.9,7.88,7.88,0,0,1,.18,1.39,7.33,7.33,0,0,1-.19,2.23,6.45,6.45,0,0,1-2.08,3.34,9.62,9.62,0,0,1-2.75,1.35.9.9,0,0,1-.22.06l-.33.05a7.23,7.23,0,0,1-1.57.05c-5.2-.84-6.39-11.38-8.57-16.4,0,0-.71-1.48-1.41-3.09a51.19,51.19,0,0,1-3.31-10.27,28.81,28.81,0,0,1-.14-11.76,20,20,0,0,1,2.41-6,18.68,18.68,0,0,1,4.38-4.93,24.72,24.72,0,0,1,11.1-4.77,44.29,44.29,0,0,1,11-.48,81.61,81.61,0,0,1,20.21,4.42,129.72,129.72,0,0,1,18.48,8.09c1.48.78,2.93,1.59,4.38,2.42l4.26,2.48c2.74,1.6,5.47,3.2,8.25,4.72a187,187,0,0,0,17,8.25,146.25,146.25,0,0,0,17.63,6,62.17,62.17,0,0,0,9.08,1.74,36.16,36.16,0,0,0,4.67.23,19,19,0,0,0,2.37-.16A12.5,12.5,0,0,0,416.11,195.76Z"/></g></g></svg>